<?xml version="1.0" encoding="UTF-8" standalone="no"?>
<!-- Generator: Adobe Illustrator 19.0.0, SVG Export Plug-In . SVG Version: 6.00 Build 0)  -->

<svg
   xmlns:dc="http://purl.org/dc/elements/1.1/"
   xmlns:cc="http://creativecommons.org/ns#"
   xmlns:rdf="http://www.w3.org/1999/02/22-rdf-syntax-ns#"
   xmlns:svg="http://www.w3.org/2000/svg"
   xmlns="http://www.w3.org/2000/svg"
   xmlns:sodipodi="http://sodipodi.sourceforge.net/DTD/sodipodi-0.dtd"
   xmlns:inkscape="http://www.inkscape.org/namespaces/inkscape"
   version="1.1"
   id="Layer_1"
   x="0px"
   y="0px"
   viewBox="0 0 24 24"
   xml:space="preserve"
   inkscape:version="0.91 r13725"
   sodipodi:docname="download.svg"
   width="24"
   height="24"><metadata
     id="metadata55"><rdf:RDF><cc:Work
         rdf:about=""><dc:format>image/svg+xml</dc:format><dc:type
           rdf:resource="http://purl.org/dc/dcmitype/StillImage" /><dc:title></dc:title></cc:Work></rdf:RDF></metadata><defs
     id="defs53" /><sodipodi:namedview
     pagecolor="#ffffff"
     bordercolor="#666666"
     borderopacity="1"
     objecttolerance="10"
     gridtolerance="10"
     guidetolerance="10"
     inkscape:pageopacity="0"
     inkscape:pageshadow="2"
     inkscape:window-width="1920"
     inkscape:window-height="1028"
     id="namedview51"
     showgrid="false"
     inkscape:zoom="12.74"
     inkscape:cx="-17.626168"
     inkscape:cy="17.968607"
     inkscape:window-x="0"
     inkscape:window-y="25"
     inkscape:window-maximized="1"
     inkscape:current-layer="Layer_1" /><g
     id="g21"
     transform="translate(0,-487.99899)"
     style="fill:#ff00ff" /><g
     id="g23"
     transform="translate(0,-487.99899)"
     style="fill:#ff00ff" /><g
     id="g25"
     transform="translate(0,-487.99899)"
     style="fill:#ff00ff" /><g
     id="g27"
     transform="translate(0,-487.99899)"
     style="fill:#ff00ff" /><g
     id="g29"
     transform="translate(0,-487.99899)"
     style="fill:#ff00ff" /><g
     id="g31"
     transform="translate(0,-487.99899)"
     style="fill:#ff00ff" /><g
     id="g33"
     transform="translate(0,-487.99899)"
     style="fill:#ff00ff" /><g
     id="g35"
     transform="translate(0,-487.99899)"
     style="fill:#ff00ff" /><g
     id="g37"
     transform="translate(0,-487.99899)"
     style="fill:#ff00ff" /><g
     id="g39"
     transform="translate(0,-487.99899)"
     style="fill:#ff00ff" /><g
     id="g41"
     transform="translate(0,-487.99899)"
     style="fill:#ff00ff" /><g
     id="g43"
     transform="translate(0,-487.99899)"
     style="fill:#ff00ff" /><g
     id="g45"
     transform="translate(0,-487.99899)"
     style="fill:#ff00ff" /><g
     id="g47"
     transform="translate(0,-487.99899)"
     style="fill:#ff00ff" /><g
     id="g49"
     transform="translate(0,-487.99899)"
     style="fill:#ff00ff" /><path
     style="fill:#395f8f;fill-opacity:1"
     d="m 12,1.725586 c -0.568965,0 -1.138672,0.3780984 -1.138672,1.1367187 l 0,10.4257813 -2.3476561,-2.34961 c -0.444389,-0.444385 -1.164986,-0.444386 -1.609375,0 -0.4443861,0.444389 -0.4443861,1.164986 0,1.609376 l 4.2910151,4.292968 c 0.444395,0.444417 1.164981,0.444417 1.609376,0 l 4.291015,-4.292968 c 0.444386,-0.444389 0.444386,-1.164986 0,-1.609376 -0.444389,-0.444385 -1.164986,-0.444385 -1.609375,0 l -2.347656,2.34961 0,-10.4257813 C 13.138672,2.1036844 12.568965,1.725586 12,1.725586 Z M 2.1386719,12.135742 c -0.569078,0 -1.13889687,0.379827 -1.1386719,1.138672 l 0,7.103516 c 0,1.047436 0.8490481,1.896484 1.8964844,1.896484 l 18.2070316,0 C 22.150952,22.274414 23,21.425366 23,20.37793 l 0,-7.103516 c 0,-0.628462 -0.51021,-1.138672 -1.138672,-1.138672 -0.628462,0 -1.136719,0.51021 -1.136719,1.138672 l 0,6.724609 -17.4492184,0 0,-6.724609 c 2.25e-4,-0.758845 -0.5676408,-1.138672 -1.1367187,-1.138672 z"
     id="path4151"
     inkscape:connector-curvature="0" /></svg>