<?xml version="1.0" encoding="UTF-8" standalone="no"?>
<!-- Created with Inkscape (http://www.inkscape.org/) -->

<svg
   width="500"
   height="300"
   viewBox="0 0 132.29167 79.375002"
   version="1.1"
   id="svg5"
   inkscape:version="1.1.2 (1:1.1+202202050950+0a00cf5339)"
   sodipodi:docname="dots.svg"
   xmlns:inkscape="http://www.inkscape.org/namespaces/inkscape"
   xmlns:sodipodi="http://sodipodi.sourceforge.net/DTD/sodipodi-0.dtd"
   xmlns="http://www.w3.org/2000/svg"
   xmlns:svg="http://www.w3.org/2000/svg">
  <sodipodi:namedview
     id="namedview7"
     pagecolor="#505050"
     bordercolor="#eeeeee"
     borderopacity="1"
     inkscape:pageshadow="0"
     inkscape:pageopacity="0"
     inkscape:pagecheckerboard="0"
     inkscape:document-units="mm"
     showgrid="false"
     units="px"
     width="500px"
     inkscape:zoom="1.45"
     inkscape:cx="351.72414"
     inkscape:cy="155.51724"
     inkscape:window-width="1920"
     inkscape:window-height="1023"
     inkscape:window-x="0"
     inkscape:window-y="30"
     inkscape:window-maximized="1"
     inkscape:current-layer="layer1" />
  <defs
     id="defs2" />
  <g
     inkscape:label="Layer 1"
     inkscape:groupmode="layer"
     id="layer1">
    <rect
       style="opacity:1;fill:#50162d;fill-opacity:1;stroke:#ffffff;stroke-width:0.134866;stroke-linecap:round;stroke-linejoin:round;stroke-miterlimit:5.8;stroke-dasharray:none;stroke-dashoffset:0;stroke-opacity:1;paint-order:normal"
       id="rect49"
       width="132.1568"
       height="79.240135"
       x="0.067433678"
       y="0.067432404"
       ry="0.0063932356" />
    <path
       style="opacity:1;fill:#e5d5ff;fill-opacity:1;stroke:none;stroke-width:0.5;stroke-linecap:round;stroke-linejoin:round;stroke-miterlimit:5.8;stroke-dasharray:none;stroke-dashoffset:0;stroke-opacity:1;paint-order:normal"
       id="path1248"
       sodipodi:type="arc"
       sodipodi:cx="11.765203"
       sodipodi:cy="64.824364"
       sodipodi:rx="2.8937883"
       sodipodi:ry="2.8937883"
       sodipodi:start="5.9024417"
       sodipodi:end="5.6585627"
       sodipodi:arc-type="arc"
       d="m 14.451763,63.749 a 2.8937883,2.8937883 0 0 1 -1.449497,3.691408 2.8937883,2.8937883 0 0 1 -3.7728691,-1.221879 2.8937883,2.8937883 0 0 1 0.9897201,-3.840311 2.8937883,2.8937883 0 0 1 3.893481,0.753884"
       sodipodi:open="true" />
    <path
       style="opacity:1;fill:#e5d5ff;fill-opacity:1;stroke:none;stroke-width:0.5;stroke-linecap:round;stroke-linejoin:round;stroke-miterlimit:5.8;stroke-dasharray:none;stroke-dashoffset:0;stroke-opacity:1;paint-order:normal"
       id="path1494"
       sodipodi:type="arc"
       sodipodi:cx="44.73597"
       sodipodi:cy="50.907059"
       sodipodi:rx="3.6862559"
       sodipodi:ry="3.6862559"
       sodipodi:start="5.9024417"
       sodipodi:end="5.6585627"
       sodipodi:arc-type="arc"
       d="m 48.158247,49.537206 a 3.6862559,3.6862559 0 0 1 -1.846444,4.702304 3.6862559,3.6862559 0 0 1 -4.806074,-1.556493 3.6862559,3.6862559 0 0 1 1.260757,-4.891984 3.6862559,3.6862559 0 0 1 4.959715,0.960336"
       sodipodi:open="true" />
    <path
       style="opacity:1;fill:#e5d5ff;fill-opacity:1;stroke:none;stroke-width:0.5;stroke-linecap:round;stroke-linejoin:round;stroke-miterlimit:5.8;stroke-dasharray:none;stroke-dashoffset:0;stroke-opacity:1;paint-order:normal"
       id="path6984"
       sodipodi:type="arc"
       sodipodi:cx="74.472641"
       sodipodi:cy="65.429596"
       sodipodi:rx="3.4746406"
       sodipodi:ry="3.4746406"
       sodipodi:start="5.9024417"
       sodipodi:end="5.6585627"
       sodipodi:arc-type="arc"
       d="m 77.698458,64.138382 a 3.4746406,3.4746406 0 0 1 -1.740446,4.43236 3.4746406,3.4746406 0 0 1 -4.530174,-1.467139 3.4746406,3.4746406 0 0 1 1.188381,-4.611152 3.4746406,3.4746406 0 0 1 4.674994,0.905206"
       sodipodi:open="true" />
    <path
       style="opacity:1;fill:#e5d5ff;fill-opacity:1;stroke:none;stroke-width:0.5;stroke-linecap:round;stroke-linejoin:round;stroke-miterlimit:5.8;stroke-dasharray:none;stroke-dashoffset:0;stroke-opacity:1;paint-order:normal"
       id="path6986"
       sodipodi:type="arc"
       sodipodi:cx="107.34837"
       sodipodi:cy="51.963249"
       sodipodi:rx="3.6862559"
       sodipodi:ry="3.6862559"
       sodipodi:start="5.9024417"
       sodipodi:end="5.6585627"
       sodipodi:arc-type="arc"
       d="m 110.77065,50.593396 a 3.6862559,3.6862559 0 0 1 -1.84644,4.702304 3.6862559,3.6862559 0 0 1 -4.80608,-1.556492 3.6862559,3.6862559 0 0 1 1.26076,-4.891985 3.6862559,3.6862559 0 0 1 4.95971,0.960336"
       sodipodi:open="true" />
    <path
       style="opacity:1;fill:#e5d5ff;fill-opacity:1;stroke:none;stroke-width:0.5;stroke-linecap:round;stroke-linejoin:round;stroke-miterlimit:5.8;stroke-dasharray:none;stroke-dashoffset:0;stroke-opacity:1;paint-order:normal"
       id="path6988"
       sodipodi:type="arc"
       sodipodi:cx="116.45947"
       sodipodi:cy="67.170113"
       sodipodi:rx="1.2677766"
       sodipodi:ry="1.2677766"
       sodipodi:start="5.9024417"
       sodipodi:end="5.6585627"
       sodipodi:arc-type="arc"
       d="m 117.63646,66.698993 a 1.2677766,1.2677766 0 0 1 -0.63503,1.617216 1.2677766,1.2677766 0 0 1 -1.6529,-0.535309 1.2677766,1.2677766 0 0 1 0.4336,-1.682451 1.2677766,1.2677766 0 0 1 1.70574,0.330279"
       sodipodi:open="true" />
    <path
       style="opacity:1;fill:#e5d5ff;fill-opacity:1;stroke:none;stroke-width:0.5;stroke-linecap:round;stroke-linejoin:round;stroke-miterlimit:5.8;stroke-dasharray:none;stroke-dashoffset:0;stroke-opacity:1;paint-order:normal"
       id="path6990"
       sodipodi:type="arc"
       sodipodi:cx="86.92112"
       sodipodi:cy="43.455006"
       sodipodi:rx="2.1541054"
       sodipodi:ry="2.1541054"
       sodipodi:start="5.9024417"
       sodipodi:end="5.6585627"
       sodipodi:arc-type="arc"
       d="m 88.920967,42.654517 a 2.1541054,2.1541054 0 0 1 -1.078991,2.747844 2.1541054,2.1541054 0 0 1 -2.808484,-0.909554 2.1541054,2.1541054 0 0 1 0.736738,-2.858686 2.1541054,2.1541054 0 0 1 2.898265,0.561183"
       sodipodi:open="true" />
    <path
       style="opacity:1;fill:#e5d5ff;fill-opacity:1;stroke:none;stroke-width:0.5;stroke-linecap:round;stroke-linejoin:round;stroke-miterlimit:5.8;stroke-dasharray:none;stroke-dashoffset:0;stroke-opacity:1;paint-order:normal"
       id="path6992"
       sodipodi:type="arc"
       sodipodi:cx="15.867595"
       sodipodi:cy="43.150414"
       sodipodi:rx="2.1541054"
       sodipodi:ry="2.1541054"
       sodipodi:start="5.9024417"
       sodipodi:end="5.6585627"
       sodipodi:arc-type="arc"
       d="m 17.867442,42.349924 a 2.1541054,2.1541054 0 0 1 -1.078991,2.747845 2.1541054,2.1541054 0 0 1 -2.808484,-0.909554 2.1541054,2.1541054 0 0 1 0.736738,-2.858686 2.1541054,2.1541054 0 0 1 2.898265,0.561183"
       sodipodi:open="true" />
    <path
       style="opacity:1;fill:#e5d5ff;fill-opacity:1;stroke:none;stroke-width:0.5;stroke-linecap:round;stroke-linejoin:round;stroke-miterlimit:5.8;stroke-dasharray:none;stroke-dashoffset:0;stroke-opacity:1;paint-order:normal"
       id="path6994"
       sodipodi:type="arc"
       sodipodi:cx="29.073593"
       sodipodi:cy="63.553764"
       sodipodi:rx="1.2677766"
       sodipodi:ry="1.2677766"
       sodipodi:start="5.9024417"
       sodipodi:end="5.6585627"
       sodipodi:arc-type="arc"
       d="m 30.250582,63.082645 a 1.2677766,1.2677766 0 0 1 -0.635028,1.617215 1.2677766,1.2677766 0 0 1 -1.652905,-0.535308 1.2677766,1.2677766 0 0 1 0.4336,-1.682451 1.2677766,1.2677766 0 0 1 1.705744,0.330279"
       sodipodi:open="true" />
    <path
       style="opacity:1;fill:#e5d5ff;fill-opacity:1;stroke:none;stroke-width:0.5;stroke-linecap:round;stroke-linejoin:round;stroke-miterlimit:5.8;stroke-dasharray:none;stroke-dashoffset:0;stroke-opacity:1;paint-order:normal"
       id="path6996"
       sodipodi:type="arc"
       sodipodi:cx="94.566345"
       sodipodi:cy="61.566448"
       sodipodi:rx="1.2677766"
       sodipodi:ry="1.2677766"
       sodipodi:start="5.9024417"
       sodipodi:end="5.6585627"
       sodipodi:arc-type="arc"
       d="m 95.743335,61.095329 a 1.2677766,1.2677766 0 0 1 -0.635029,1.617215 1.2677766,1.2677766 0 0 1 -1.652905,-0.535308 1.2677766,1.2677766 0 0 1 0.4336,-1.682451 1.2677766,1.2677766 0 0 1 1.705744,0.330279"
       sodipodi:open="true" />
    <path
       style="opacity:1;fill:#e5d5ff;fill-opacity:1;stroke:none;stroke-width:0.5;stroke-linecap:round;stroke-linejoin:round;stroke-miterlimit:5.8;stroke-dasharray:none;stroke-dashoffset:0;stroke-opacity:1;paint-order:normal"
       id="path6998"
       sodipodi:type="arc"
       sodipodi:cx="64.818352"
       sodipodi:cy="52.014805"
       sodipodi:rx="1.0707268"
       sodipodi:ry="1.0707268"
       sodipodi:start="5.9024417"
       sodipodi:end="5.6585627"
       sodipodi:arc-type="arc"
       d="m 65.812402,51.616911 a 1.0707268,1.0707268 0 0 1 -0.536326,1.365853 1.0707268,1.0707268 0 0 1 -1.395995,-0.452106 1.0707268,1.0707268 0 0 1 0.366205,-1.420948 1.0707268,1.0707268 0 0 1 1.440622,0.278943"
       sodipodi:open="true" />
    <path
       style="opacity:1;fill:#e5d5ff;fill-opacity:1;stroke:none;stroke-width:0.5;stroke-linecap:round;stroke-linejoin:round;stroke-miterlimit:5.8;stroke-dasharray:none;stroke-dashoffset:0;stroke-opacity:1;paint-order:normal"
       id="path7000"
       sodipodi:type="arc"
       sodipodi:cx="125.18488"
       sodipodi:cy="45.337551"
       sodipodi:rx="1.2677766"
       sodipodi:ry="1.2677766"
       sodipodi:start="5.9024417"
       sodipodi:end="5.6585627"
       sodipodi:arc-type="arc"
       d="m 126.36187,44.866431 a 1.2677766,1.2677766 0 0 1 -0.63503,1.617216 1.2677766,1.2677766 0 0 1 -1.6529,-0.535308 1.2677766,1.2677766 0 0 1 0.4336,-1.682451 1.2677766,1.2677766 0 0 1 1.70574,0.330279"
       sodipodi:open="true" />
  </g>
</svg>
