<?xml version="1.0" encoding="UTF-8" standalone="no"?>
<!-- Created with Inkscape (http://www.inkscape.org/) -->

<svg
   width="500"
   height="300"
   viewBox="0 0 132.29167 79.375002"
   version="1.1"
   id="svg5"
   inkscape:version="1.1.2 (1:1.1+202202050950+0a00cf5339)"
   sodipodi:docname="quatrefoils.svg"
   xmlns:inkscape="http://www.inkscape.org/namespaces/inkscape"
   xmlns:sodipodi="http://sodipodi.sourceforge.net/DTD/sodipodi-0.dtd"
   xmlns="http://www.w3.org/2000/svg"
   xmlns:svg="http://www.w3.org/2000/svg">
  <sodipodi:namedview
     id="namedview7"
     pagecolor="#505050"
     bordercolor="#eeeeee"
     borderopacity="1"
     inkscape:pageshadow="0"
     inkscape:pageopacity="0"
     inkscape:pagecheckerboard="0"
     inkscape:document-units="mm"
     showgrid="false"
     units="px"
     width="500px"
     inkscape:zoom="1.45"
     inkscape:cx="323.44828"
     inkscape:cy="155.51724"
     inkscape:window-width="1920"
     inkscape:window-height="1023"
     inkscape:window-x="0"
     inkscape:window-y="30"
     inkscape:window-maximized="1"
     inkscape:current-layer="layer1" />
  <defs
     id="defs2" />
  <g
     inkscape:label="Layer 1"
     inkscape:groupmode="layer"
     id="layer1">
    <rect
       style="opacity:1;fill:#2d1650;fill-opacity:1;stroke:#ffffff;stroke-width:0.134866;stroke-linecap:round;stroke-linejoin:round;stroke-miterlimit:5.8;stroke-dasharray:none;stroke-dashoffset:0;stroke-opacity:1;paint-order:normal"
       id="rect49"
       width="132.1568"
       height="79.240135"
       x="0.067433678"
       y="0.067432404"
       ry="0.0063932356" />
    <path
       style="fill:#ffffff;fill-opacity:1;stroke:none;stroke-width:0.00869649;stroke-linecap:round;stroke-miterlimit:4;stroke-dasharray:none"
       d="m 43.533015,36.505619 a 1.3044721,1.3044719 0 0 0 -1.301822,1.252396 1.3044721,1.3044719 0 0 0 -0.0027,-1.05e-4 1.3044721,1.3044719 0 0 0 -1.304472,1.304472 1.3044721,1.3044719 0 0 0 1.304472,1.304472 1.3044721,1.3044719 0 0 0 0.0027,-1.04e-4 1.3044721,1.3044719 0 0 0 -0.0027,0.05228 1.3044721,1.3044719 0 0 0 1.304473,1.304472 1.3044721,1.3044719 0 0 0 1.304473,-1.304472 1.3044721,1.3044719 0 0 0 -0.0018,-0.05228 1.3044721,1.3044719 0 0 0 0.0018,1.04e-4 1.3044721,1.3044719 0 0 0 1.304472,-1.304472 1.3044721,1.3044719 0 0 0 -1.304472,-1.304472 1.3044721,1.3044719 0 0 0 -0.0018,1.05e-4 1.3044721,1.3044719 0 0 0 -1.302634,-1.252396 z m -0.0027,2.608842 a 1.3044721,1.3044719 0 0 0 0.0027,1.05e-4 1.3044721,1.3044719 0 0 0 0.0018,-1.05e-4 1.3044721,1.3044719 0 0 0 0,2.62e-4 1.3044721,1.3044719 0 0 0 -0.0018,-1.04e-4 1.3044721,1.3044719 0 0 0 -0.0027,1.04e-4 1.3044721,1.3044719 0 0 0 0,-2.62e-4 z"
       id="path930"
       inkscape:connector-curvature="0" />
    <path
       style="fill:#ffffff;fill-opacity:1;stroke:none;stroke-width:0.0186514;stroke-linecap:round;stroke-miterlimit:4;stroke-dasharray:none"
       d="m 18.42076,46.872591 a 2.7976998,2.7976994 0 0 0 -2.792016,2.686012 2.7976998,2.7976994 0 0 0 -0.0058,-2.25e-4 2.7976998,2.7976994 0 0 0 -2.7977,2.797699 2.7976998,2.7976994 0 0 0 2.7977,2.7977 2.7976998,2.7976994 0 0 0 0.0058,-2.23e-4 2.7976998,2.7976994 0 0 0 -0.0058,0.112125 2.7976998,2.7976994 0 0 0 2.797699,2.797699 2.7976998,2.7976994 0 0 0 2.797702,-2.797699 2.7976998,2.7976994 0 0 0 -0.0039,-0.112125 2.7976998,2.7976994 0 0 0 0.0039,2.23e-4 2.7976998,2.7976994 0 0 0 2.7977,-2.7977 2.7976998,2.7976994 0 0 0 -2.7977,-2.797699 2.7976998,2.7976994 0 0 0 -0.0039,2.25e-4 2.7976998,2.7976994 0 0 0 -2.793758,-2.686012 z m -0.0058,5.59518 a 2.7976998,2.7976994 0 0 0 0.0058,2.25e-4 2.7976998,2.7976994 0 0 0 0.0039,-2.25e-4 2.7976998,2.7976994 0 0 0 0,5.62e-4 2.7976998,2.7976994 0 0 0 -0.0039,-2.23e-4 2.7976998,2.7976994 0 0 0 -0.0058,2.23e-4 2.7976998,2.7976994 0 0 0 0,-5.62e-4 z"
       id="path927"
       inkscape:connector-curvature="0" />
    <path
       style="fill:#ffffff;fill-opacity:1;stroke:none;stroke-width:0.00869649;stroke-linecap:round;stroke-miterlimit:4;stroke-dasharray:none"
       d="m 65.008583,55.572397 a 1.3044721,1.3044719 0 0 0 -1.301822,1.252396 1.3044721,1.3044719 0 0 0 -0.0027,-1.05e-4 1.3044721,1.3044719 0 0 0 -1.304472,1.304472 1.3044721,1.3044719 0 0 0 1.304472,1.304472 1.3044721,1.3044719 0 0 0 0.0027,-1.04e-4 1.3044721,1.3044719 0 0 0 -0.0027,0.05228 1.3044721,1.3044719 0 0 0 1.304472,1.304472 1.3044721,1.3044719 0 0 0 1.304473,-1.304472 1.3044721,1.3044719 0 0 0 -0.0018,-0.05228 1.3044721,1.3044719 0 0 0 0.0018,1.04e-4 1.3044721,1.3044719 0 0 0 1.304472,-1.304472 1.3044721,1.3044719 0 0 0 -1.304472,-1.304472 1.3044721,1.3044719 0 0 0 -0.0018,1.05e-4 1.3044721,1.3044719 0 0 0 -1.302634,-1.252396 z m -0.0027,2.608842 a 1.3044721,1.3044719 0 0 0 0.0027,1.05e-4 1.3044721,1.3044719 0 0 0 0.0018,-1.05e-4 1.3044721,1.3044719 0 0 0 0,2.62e-4 1.3044721,1.3044719 0 0 0 -0.0018,-1.04e-4 1.3044721,1.3044719 0 0 0 -0.0027,1.04e-4 1.3044721,1.3044719 0 0 0 0,-2.62e-4 z"
       id="path929"
       inkscape:connector-curvature="0" />
    <path
       style="fill:#ffffff;fill-opacity:1;stroke:none;stroke-width:0.0142534;stroke-linecap:round;stroke-miterlimit:4;stroke-dasharray:none"
       d="m 70.836235,26.205009 a 2.1380088,2.1380085 0 0 0 -2.133666,2.052657 2.1380088,2.1380085 0 0 0 -0.0044,-1.72e-4 2.1380088,2.1380085 0 0 0 -2.138009,2.138009 2.1380088,2.1380085 0 0 0 2.138009,2.138008 2.1380088,2.1380085 0 0 0 0.0044,-1.7e-4 2.1380088,2.1380085 0 0 0 -0.0044,0.08569 2.1380088,2.1380085 0 0 0 2.138009,2.138009 2.1380088,2.1380085 0 0 0 2.13801,-2.138009 2.1380088,2.1380085 0 0 0 -0.0029,-0.08569 2.1380088,2.1380085 0 0 0 0.0029,1.7e-4 2.1380088,2.1380085 0 0 0 2.138009,-2.138008 2.1380088,2.1380085 0 0 0 -2.138009,-2.138009 2.1380088,2.1380085 0 0 0 -0.0029,1.72e-4 2.1380088,2.1380085 0 0 0 -2.134996,-2.052657 z m -0.0044,4.27585 a 2.1380088,2.1380085 0 0 0 0.0044,1.73e-4 2.1380088,2.1380085 0 0 0 0.003,-1.73e-4 2.1380088,2.1380085 0 0 0 0,4.3e-4 2.1380088,2.1380085 0 0 0 -0.003,-1.71e-4 2.1380088,2.1380085 0 0 0 -0.0044,1.71e-4 2.1380088,2.1380085 0 0 0 0,-4.3e-4 z"
       id="path931"
       inkscape:connector-curvature="0" />
    <path
       style="fill:#ffffff;fill-opacity:1;stroke:none;stroke-width:0.0160702;stroke-linecap:round;stroke-miterlimit:4;stroke-dasharray:none"
       d="m 116.5388,48.068136 a 2.41052,2.4105197 0 0 0 -2.40562,2.31429 2.41052,2.4105197 0 0 0 -0.006,-1.94e-4 2.41052,2.4105197 0 0 0 -2.41052,2.410519 2.41052,2.4105197 0 0 0 2.41052,2.41052 2.41052,2.4105197 0 0 0 0.006,-1.92e-4 2.41052,2.4105197 0 0 0 -0.006,0.09661 2.41052,2.4105197 0 0 0 2.41052,2.41052 2.41052,2.4105197 0 0 0 2.41051,-2.41052 2.41052,2.4105197 0 0 0 -0.004,-0.09661 2.41052,2.4105197 0 0 0 0.004,1.92e-4 2.41052,2.4105197 0 0 0 2.41054,-2.41052 2.41052,2.4105197 0 0 0 -2.41054,-2.410519 2.41052,2.4105197 0 0 0 -0.004,1.94e-4 2.41052,2.4105197 0 0 0 -2.40712,-2.31429 z m -0.006,4.820852 a 2.41052,2.4105197 0 0 0 0.006,1.94e-4 2.41052,2.4105197 0 0 0 0.004,-1.94e-4 2.41052,2.4105197 0 0 0 0,4.84e-4 2.41052,2.4105197 0 0 0 -0.004,-1.92e-4 2.41052,2.4105197 0 0 0 -0.006,1.92e-4 2.41052,2.4105197 0 0 0 0,-4.84e-4 z"
       id="path933"
       inkscape:connector-curvature="0" />
    <path
       style="fill:#ffffff;fill-opacity:1;stroke:none;stroke-width:0.00673996;stroke-linecap:round;stroke-miterlimit:4;stroke-dasharray:none"
       d="m 18.882038,29.386178 a 1.0109937,1.0109935 0 0 0 -1.00894,0.970634 1.0109937,1.0109935 0 0 0 -0.0021,-8.2e-5 1.0109937,1.0109935 0 0 0 -1.010994,1.010994 1.0109937,1.0109935 0 0 0 1.010994,1.010994 1.0109937,1.0109935 0 0 0 0.0021,-8.1e-5 1.0109937,1.0109935 0 0 0 -0.0021,0.04052 1.0109937,1.0109935 0 0 0 1.010993,1.010994 1.0109937,1.0109935 0 0 0 1.010994,-1.010994 1.0109937,1.0109935 0 0 0 -0.0014,-0.04052 1.0109937,1.0109935 0 0 0 0.0014,8.1e-5 1.0109937,1.0109935 0 0 0 1.010994,-1.010994 1.0109937,1.0109935 0 0 0 -1.010994,-1.010994 1.0109937,1.0109935 0 0 0 -0.0014,8.2e-5 1.0109937,1.0109935 0 0 0 -1.009569,-0.970634 z m -0.0021,2.021908 a 1.0109937,1.0109935 0 0 0 0.0021,8.2e-5 1.0109937,1.0109935 0 0 0 0.0014,-8.2e-5 1.0109937,1.0109935 0 0 0 0,2.03e-4 1.0109937,1.0109935 0 0 0 -0.0014,-8e-5 1.0109937,1.0109935 0 0 0 -0.0021,8e-5 1.0109937,1.0109935 0 0 0 0,-2.03e-4 z"
       id="path935"
       inkscape:connector-curvature="0" />
    <path
       style="fill:#ffffff;fill-opacity:1;stroke:none;stroke-width:0.00673996;stroke-linecap:round;stroke-miterlimit:4;stroke-dasharray:none"
       d="m 91.335637,44.738611 a 1.0109937,1.0109935 0 0 0 -1.00894,0.970634 1.0109937,1.0109935 0 0 0 -0.0021,-8.2e-5 1.0109937,1.0109935 0 0 0 -1.010994,1.010994 1.0109937,1.0109935 0 0 0 1.010994,1.010994 1.0109937,1.0109935 0 0 0 0.0021,-8.1e-5 1.0109937,1.0109935 0 0 0 -0.0021,0.04052 1.0109937,1.0109935 0 0 0 1.010993,1.010994 1.0109937,1.0109935 0 0 0 1.010994,-1.010994 1.0109937,1.0109935 0 0 0 -0.0014,-0.04052 1.0109937,1.0109935 0 0 0 0.0014,8.1e-5 1.0109937,1.0109935 0 0 0 1.010994,-1.010994 1.0109937,1.0109935 0 0 0 -1.010994,-1.010994 1.0109937,1.0109935 0 0 0 -0.0014,8.2e-5 1.0109937,1.0109935 0 0 0 -1.009569,-0.970634 z m -0.0021,2.021908 a 1.0109937,1.0109935 0 0 0 0.0021,8.2e-5 1.0109937,1.0109935 0 0 0 0.0014,-8.2e-5 1.0109937,1.0109935 0 0 0 0,2.03e-4 1.0109937,1.0109935 0 0 0 -0.0014,-8e-5 1.0109937,1.0109935 0 0 0 -0.0021,8e-5 1.0109937,1.0109935 0 0 0 0,-2.03e-4 z"
       id="path937"
       inkscape:connector-curvature="0" />
    <path
       style="fill:#ffffff;fill-opacity:1;stroke:none;stroke-width:0.00869649;stroke-linecap:round;stroke-miterlimit:4;stroke-dasharray:none"
       d="m 103.15165,26.954323 a 1.3044721,1.3044719 0 0 0 -1.30182,1.252396 1.3044721,1.3044719 0 0 0 -0.003,-1.05e-4 1.3044721,1.3044719 0 0 0 -1.30448,1.304472 1.3044721,1.3044719 0 0 0 1.30448,1.304472 1.3044721,1.3044719 0 0 0 0.003,-1.04e-4 1.3044721,1.3044719 0 0 0 -0.003,0.05228 1.3044721,1.3044719 0 0 0 1.30447,1.304472 1.3044721,1.3044719 0 0 0 1.30447,-1.304472 1.3044721,1.3044719 0 0 0 -0.002,-0.05228 1.3044721,1.3044719 0 0 0 0.002,1.04e-4 1.3044721,1.3044719 0 0 0 1.30447,-1.304472 1.3044721,1.3044719 0 0 0 -1.30447,-1.304472 1.3044721,1.3044719 0 0 0 -0.002,1.05e-4 1.3044721,1.3044719 0 0 0 -1.30263,-1.252396 z m -0.003,2.608842 a 1.3044721,1.3044719 0 0 0 0.003,1.05e-4 1.3044721,1.3044719 0 0 0 0.002,-1.05e-4 1.3044721,1.3044719 0 0 0 0,2.62e-4 1.3044721,1.3044719 0 0 0 -0.002,-1.04e-4 1.3044721,1.3044719 0 0 0 -0.003,1.04e-4 1.3044721,1.3044719 0 0 0 0,-2.62e-4 z"
       id="path939"
       inkscape:connector-curvature="0" />
  </g>
</svg>
