<?xml version="1.0" encoding="UTF-8" standalone="no"?>
<!-- Created with Inkscape (http://www.inkscape.org/) -->

<svg
   width="500"
   height="300"
   viewBox="0 0 132.29167 79.375002"
   version="1.1"
   id="svg5"
   inkscape:version="1.1.2 (1:1.1+202202050950+0a00cf5339)"
   sodipodi:docname="stars.svg"
   xmlns:inkscape="http://www.inkscape.org/namespaces/inkscape"
   xmlns:sodipodi="http://sodipodi.sourceforge.net/DTD/sodipodi-0.dtd"
   xmlns="http://www.w3.org/2000/svg"
   xmlns:svg="http://www.w3.org/2000/svg">
  <sodipodi:namedview
     id="namedview7"
     pagecolor="#505050"
     bordercolor="#eeeeee"
     borderopacity="1"
     inkscape:pageshadow="0"
     inkscape:pageopacity="0"
     inkscape:pagecheckerboard="0"
     inkscape:document-units="mm"
     showgrid="false"
     units="px"
     width="500px"
     inkscape:zoom="1.45"
     inkscape:cx="299.31034"
     inkscape:cy="155.51724"
     inkscape:window-width="1920"
     inkscape:window-height="1023"
     inkscape:window-x="0"
     inkscape:window-y="30"
     inkscape:window-maximized="1"
     inkscape:current-layer="layer1" />
  <defs
     id="defs2" />
  <g
     inkscape:label="Layer 1"
     inkscape:groupmode="layer"
     id="layer1">
    <rect
       style="opacity:1;fill:#002255;fill-opacity:1;stroke:#ffffff;stroke-width:0.134866;stroke-linecap:round;stroke-linejoin:round;stroke-miterlimit:5.8;stroke-dasharray:none;stroke-dashoffset:0;stroke-opacity:1;paint-order:normal"
       id="rect49"
       width="132.1568"
       height="79.240135"
       x="0.067433678"
       y="0.067432404"
       ry="0.0063932356" />
    <path
       sodipodi:type="star"
       style="opacity:1;fill:#dbe3e2;fill-opacity:1;stroke:none;stroke-width:0.5;stroke-linecap:round;stroke-linejoin:round;stroke-miterlimit:5.8;stroke-dasharray:none;stroke-dashoffset:0;stroke-opacity:1;paint-order:normal"
       id="path379"
       inkscape:flatsided="false"
       sodipodi:sides="4"
       sodipodi:cx="141.27795"
       sodipodi:cy="64.634529"
       sodipodi:r1="27.801125"
       sodipodi:r2="9.4493799"
       sodipodi:arg1="0.012023623"
       sodipodi:arg2="0.79742179"
       inkscape:rounded="0.16"
       inkscape:randomized="0"
       d="m 169.07707,64.968791 c -0.0426,3.543932 -18.66214,3.951506 -21.19821,6.427312 -2.53608,2.475807 -3.39124,21.080154 -6.93517,21.037541 -3.54393,-0.04261 -3.9515,-18.662144 -6.42731,-21.198214 -2.47581,-2.53607 -21.08015,-3.391231 -21.03754,-6.935163 0.0426,-3.543932 18.66214,-3.951506 21.19821,-6.427312 2.53607,-2.475807 3.39123,-21.080154 6.93517,-21.037541 3.54393,0.04261 3.9515,18.662144 6.42731,21.198214 2.4758,2.53607 21.08015,3.391231 21.03754,6.935163 z"
       transform="matrix(0.15267221,0,0,0.15267221,-8.3066165,2.6525741)" />
    <path
       sodipodi:type="star"
       style="opacity:1;fill:#dbe3e2;fill-opacity:1;stroke:none;stroke-width:0.5;stroke-linecap:round;stroke-linejoin:round;stroke-miterlimit:5.8;stroke-dasharray:none;stroke-dashoffset:0;stroke-opacity:1;paint-order:normal"
       id="path527"
       inkscape:flatsided="false"
       sodipodi:sides="4"
       sodipodi:cx="141.27795"
       sodipodi:cy="64.634529"
       sodipodi:r1="27.801125"
       sodipodi:r2="9.4493799"
       sodipodi:arg1="0.012023623"
       sodipodi:arg2="0.79742179"
       inkscape:rounded="0.16"
       inkscape:randomized="0"
       d="m 169.07707,64.968791 c -0.0426,3.543932 -18.66214,3.951506 -21.19821,6.427312 -2.53608,2.475807 -3.39124,21.080154 -6.93517,21.037541 -3.54393,-0.04261 -3.9515,-18.662144 -6.42731,-21.198214 -2.47581,-2.53607 -21.08015,-3.391231 -21.03754,-6.935163 0.0426,-3.543932 18.66214,-3.951506 21.19821,-6.427312 2.53607,-2.475807 3.39123,-21.080154 6.93517,-21.037541 3.54393,0.04261 3.9515,18.662144 6.42731,21.198214 2.4758,2.53607 21.08015,3.391231 21.03754,6.935163 z"
       transform="matrix(0.10022306,0,0,0.10022306,49.097072,20.087609)" />
    <path
       sodipodi:type="star"
       style="opacity:1;fill:#dbe3e2;fill-opacity:1;stroke:none;stroke-width:0.5;stroke-linecap:round;stroke-linejoin:round;stroke-miterlimit:5.8;stroke-dasharray:none;stroke-dashoffset:0;stroke-opacity:1;paint-order:normal"
       id="path529"
       inkscape:flatsided="false"
       sodipodi:sides="4"
       sodipodi:cx="141.27795"
       sodipodi:cy="64.634529"
       sodipodi:r1="27.801125"
       sodipodi:r2="9.4493799"
       sodipodi:arg1="0.012023623"
       sodipodi:arg2="0.79742179"
       inkscape:rounded="0.16"
       inkscape:randomized="0"
       d="m 169.07707,64.968791 c -0.0426,3.543932 -18.66214,3.951506 -21.19821,6.427312 -2.53608,2.475807 -3.39124,21.080154 -6.93517,21.037541 -3.54393,-0.04261 -3.9515,-18.662144 -6.42731,-21.198214 -2.47581,-2.53607 -21.08015,-3.391231 -21.03754,-6.935163 0.0426,-3.543932 18.66214,-3.951506 21.19821,-6.427312 2.53607,-2.475807 3.39123,-21.080154 6.93517,-21.037541 3.54393,0.04261 3.9515,18.662144 6.42731,21.198214 2.4758,2.53607 21.08015,3.391231 21.03754,6.935163 z"
       transform="matrix(0.11345203,0,0,0.11345203,70.065819,2.4257085)" />
    <path
       sodipodi:type="star"
       style="opacity:1;fill:#dbe3e2;fill-opacity:1;stroke:none;stroke-width:0.5;stroke-linecap:round;stroke-linejoin:round;stroke-miterlimit:5.8;stroke-dasharray:none;stroke-dashoffset:0;stroke-opacity:1;paint-order:normal"
       id="path531"
       inkscape:flatsided="false"
       sodipodi:sides="4"
       sodipodi:cx="141.27795"
       sodipodi:cy="64.634529"
       sodipodi:r1="27.801125"
       sodipodi:r2="9.4493799"
       sodipodi:arg1="0.012023623"
       sodipodi:arg2="0.79742179"
       inkscape:rounded="0.16"
       inkscape:randomized="0"
       d="m 169.07707,64.968791 c -0.0426,3.543932 -18.66214,3.951506 -21.19821,6.427312 -2.53608,2.475807 -3.39124,21.080154 -6.93517,21.037541 -3.54393,-0.04261 -3.9515,-18.662144 -6.42731,-21.198214 -2.47581,-2.53607 -21.08015,-3.391231 -21.03754,-6.935163 0.0426,-3.543932 18.66214,-3.951506 21.19821,-6.427312 2.53607,-2.475807 3.39123,-21.080154 6.93517,-21.037541 3.54393,0.04261 3.9515,18.662144 6.42731,21.198214 2.4758,2.53607 21.08015,3.391231 21.03754,6.935163 z"
       transform="matrix(0.15267221,0,0,0.15267221,88.913241,12.59958)" />
    <path
       sodipodi:type="star"
       style="opacity:1;fill:#dbe3e2;fill-opacity:1;stroke:none;stroke-width:0.5;stroke-linecap:round;stroke-linejoin:round;stroke-miterlimit:5.8;stroke-dasharray:none;stroke-dashoffset:0;stroke-opacity:1;paint-order:normal"
       id="path533"
       inkscape:flatsided="false"
       sodipodi:sides="4"
       sodipodi:cx="141.27795"
       sodipodi:cy="64.634529"
       sodipodi:r1="27.801125"
       sodipodi:r2="9.4493799"
       sodipodi:arg1="0.012023623"
       sodipodi:arg2="0.79742179"
       inkscape:rounded="0.16"
       inkscape:randomized="0"
       d="m 169.07707,64.968791 c -0.0426,3.543932 -18.66214,3.951506 -21.19821,6.427312 -2.53608,2.475807 -3.39124,21.080154 -6.93517,21.037541 -3.54393,-0.04261 -3.9515,-18.662144 -6.42731,-21.198214 -2.47581,-2.53607 -21.08015,-3.391231 -21.03754,-6.935163 0.0426,-3.543932 18.66214,-3.951506 21.19821,-6.427312 2.53607,-2.475807 3.39123,-21.080154 6.93517,-21.037541 3.54393,0.04261 3.9515,18.662144 6.42731,21.198214 2.4758,2.53607 21.08015,3.391231 21.03754,6.935163 z"
       transform="matrix(0.12403925,0,0,0.12403925,26.242447,8.1438622)" />
    <path
       sodipodi:type="star"
       style="opacity:1;fill:#dbe3e2;fill-opacity:1;stroke:none;stroke-width:0.5;stroke-linecap:round;stroke-linejoin:round;stroke-miterlimit:5.8;stroke-dasharray:none;stroke-dashoffset:0;stroke-opacity:1;paint-order:normal"
       id="path535"
       inkscape:flatsided="false"
       sodipodi:sides="4"
       sodipodi:cx="141.27795"
       sodipodi:cy="64.634529"
       sodipodi:r1="27.801125"
       sodipodi:r2="9.4493799"
       sodipodi:arg1="0.012023623"
       sodipodi:arg2="0.79742179"
       inkscape:rounded="0.16"
       inkscape:randomized="0"
       d="m 169.07707,64.968791 c -0.0426,3.543932 -18.66214,3.951506 -21.19821,6.427312 -2.53608,2.475807 -3.39124,21.080154 -6.93517,21.037541 -3.54393,-0.04261 -3.9515,-18.662144 -6.42731,-21.198214 -2.47581,-2.53607 -21.08015,-3.391231 -21.03754,-6.935163 0.0426,-3.543932 18.66214,-3.951506 21.19821,-6.427312 2.53607,-2.475807 3.39123,-21.080154 6.93517,-21.037541 3.54393,0.04261 3.9515,18.662144 6.42731,21.198214 2.4758,2.53607 21.08015,3.391231 21.03754,6.935163 z"
       transform="matrix(0.14689955,0,0,0.14689955,58.974665,28.059728)" />
    <path
       sodipodi:type="star"
       style="opacity:1;fill:#dbe3e2;fill-opacity:1;stroke:none;stroke-width:0.5;stroke-linecap:round;stroke-linejoin:round;stroke-miterlimit:5.8;stroke-dasharray:none;stroke-dashoffset:0;stroke-opacity:1;paint-order:normal"
       id="path537"
       inkscape:flatsided="false"
       sodipodi:sides="4"
       sodipodi:cx="141.27795"
       sodipodi:cy="64.634529"
       sodipodi:r1="27.801125"
       sodipodi:r2="9.4493799"
       sodipodi:arg1="0.012023623"
       sodipodi:arg2="0.79742179"
       inkscape:rounded="0.16"
       inkscape:randomized="0"
       d="m 169.07707,64.968791 c -0.0426,3.543932 -18.66214,3.951506 -21.19821,6.427312 -2.53608,2.475807 -3.39124,21.080154 -6.93517,21.037541 -3.54393,-0.04261 -3.9515,-18.662144 -6.42731,-21.198214 -2.47581,-2.53607 -21.08015,-3.391231 -21.03754,-6.935163 0.0426,-3.543932 18.66214,-3.951506 21.19821,-6.427312 2.53607,-2.475807 3.39123,-21.080154 6.93517,-21.037541 3.54393,0.04261 3.9515,18.662144 6.42731,21.198214 2.4758,2.53607 21.08015,3.391231 21.03754,6.935163 z"
       transform="matrix(0.09775638,0,0,0.09775638,108.42412,2.2097389)" />
    <path
       sodipodi:type="star"
       style="opacity:1;fill:#dbe3e2;fill-opacity:1;stroke:none;stroke-width:0.5;stroke-linecap:round;stroke-linejoin:round;stroke-miterlimit:5.8;stroke-dasharray:none;stroke-dashoffset:0;stroke-opacity:1;paint-order:normal"
       id="path539"
       inkscape:flatsided="false"
       sodipodi:sides="4"
       sodipodi:cx="141.27795"
       sodipodi:cy="64.634529"
       sodipodi:r1="27.801125"
       sodipodi:r2="9.4493799"
       sodipodi:arg1="0.012023623"
       sodipodi:arg2="0.79742179"
       inkscape:rounded="0.16"
       inkscape:randomized="0"
       d="m 169.07707,64.968791 c -0.0426,3.543932 -18.66214,3.951506 -21.19821,6.427312 -2.53608,2.475807 -3.39124,21.080154 -6.93517,21.037541 -3.54393,-0.04261 -3.9515,-18.662144 -6.42731,-21.198214 -2.47581,-2.53607 -21.08015,-3.391231 -21.03754,-6.935163 0.0426,-3.543932 18.66214,-3.951506 21.19821,-6.427312 2.53607,-2.475807 3.39123,-21.080154 6.93517,-21.037541 3.54393,0.04261 3.9515,18.662144 6.42731,21.198214 2.4758,2.53607 21.08015,3.391231 21.03754,6.935163 z"
       transform="matrix(0.07773355,0,0,0.07773355,12.820624,24.609546)" />
    <path
       sodipodi:type="star"
       style="opacity:1;fill:#dbe3e2;fill-opacity:1;stroke:none;stroke-width:0.5;stroke-linecap:round;stroke-linejoin:round;stroke-miterlimit:5.8;stroke-dasharray:none;stroke-dashoffset:0;stroke-opacity:1;paint-order:normal"
       id="path541"
       inkscape:flatsided="false"
       sodipodi:sides="4"
       sodipodi:cx="141.27795"
       sodipodi:cy="64.634529"
       sodipodi:r1="27.801125"
       sodipodi:r2="9.4493799"
       sodipodi:arg1="0.012023623"
       sodipodi:arg2="0.79742179"
       inkscape:rounded="0.16"
       inkscape:randomized="0"
       d="m 169.07707,64.968791 c -0.0426,3.543932 -18.66214,3.951506 -21.19821,6.427312 -2.53608,2.475807 -3.39124,21.080154 -6.93517,21.037541 -3.54393,-0.04261 -3.9515,-18.662144 -6.42731,-21.198214 -2.47581,-2.53607 -21.08015,-3.391231 -21.03754,-6.935163 0.0426,-3.543932 18.66214,-3.951506 21.19821,-6.427312 2.53607,-2.475807 3.39123,-21.080154 6.93517,-21.037541 3.54393,0.04261 3.9515,18.662144 6.42731,21.198214 2.4758,2.53607 21.08015,3.391231 21.03754,6.935163 z"
       transform="matrix(0.07773355,0,0,0.07773355,113.9273,30.37457)" />
  </g>
</svg>
